<svg xmlns="http://www.w3.org/2000/svg" width="24" height="24" viewBox="0 0 24 24" fill="none" stroke="#92ffe5" stroke-width="1.5" stroke-linecap="round" stroke-linejoin="round">
  <path d="M4.5 16.5c-1.5 1.26-2 5-2 5s3.74-.5 5-2c.71-.84.71-2.13 0-2.97a2.1 2.1 0 0 0-3 0Z"/>
  <path d="M12 15l-3-3a22 22 0 0 1 2-3.95A12.88 12.88 0 0 1 22 2c0 2.72-.78 7.5-6 11a22.35 22.35 0 0 1-4 2z"/>
  <path d="M9 12H4s.5-1 1-4c2 0 3 .5 3 2.5a1 1 0 0 1-1 1z"/>
  <path d="M12 15v5s1-.5 4-1c0-2-.5-3-2.5-3a1 1 0 0 0-1.5 1.5z"/>
  <path d="M15 9c0 1.1-.9 2-2 2s-2-.9-2-2 .9-2 2-2 2 .9 2 2z"/>
</svg>
